<svg width="19" height="37" viewBox="0 0 19 37" fill="none" xmlns="http://www.w3.org/2000/svg">
<path d="M2.69904 1.00837L2.45006 2.75049C12.8334 5.15247 14.2996 17.1951 14.2228 17.2484C12.7751 15.0144 10.7094 13.9978 8.64698 13.9978C6.56282 13.9978 4.47882 15.035 3.04019 16.9163C0.0463491 20.6629 -0.116558 27.7868 3.22783 32.0782C4.87537 34.1566 7.08848 35.2509 9.30785 35.2509C11.6532 35.2509 14.0076 34.0253 15.7137 31.4553C21.1759 22.9336 18.1911 3.74655 2.69904 1.00837ZM16.2885 32.1112C14.5118 34.7918 12.0342 36.2593 9.30785 36.2593C6.85187 36.2593 4.44815 35.0009 2.70827 32.808C0.94399 30.5494 -0.0151534 27.4957 0.00018106 24.2043C0.0156804 21.0932 0.934756 18.1666 2.5208 16.1826C4.07304 14.1577 6.30774 12.9897 8.64698 12.9897C10.1776 12.9897 11.6039 13.4855 12.8273 14.42C11.7515 10.9318 9.0066 5.29188 2.32096 3.74237C2.12111 3.6973 1.94287 3.54558 1.8291 3.32438C1.71236 3.10296 1.66932 2.82833 1.70626 2.56183L1.95524 0.823891C2.02284 0.34037 2.33942 -3.8147e-06 2.69607 -3.8147e-06C2.72987 -3.8147e-06 2.76367 0.00417328 2.79748 0.00835037C10.1961 1.31577 15.7351 6.5707 17.9914 14.4284C19.8048 20.7284 19.1347 27.672 16.2885 32.1112Z" fill="#EEC58E"/>
</svg>
